# xmcd
#
# Track frame offsets:
#	150
#	13799
#	33189
#	46949
#	66050
#	80924
#	91789
#	103083
#	122490
#	137836
#	147736
#	159067
#
# Disc length: 2312 seconds
#
# Revision: 0
# Processed by: cddbd v1.5.2PL0 Copyright (c) Steve Scherf et al.
# Submitted via: EasyCDDAExtractor 16.0.6.1
#
DISCID=9a09060c
DTITLE=Θεοδώρε Μιχαήλ - Θεοδώρε τραγουδά Θεοδωράκη-LP
DYEAR=1974
DGENRE=Έντεχνη λαϊκή
TTITLE0=Του μικρού βορηά [Μ. Θεοδωράκη-Ο. Ελύτη]
TTITLE1=Προδομένη μου αγάπη [Μ. Θεοδωράκη]
TTITLE2=Τ' όνειρο καπνός [Μ. Θεοδωράκη-Ν. Γκάτσου]
TTITLE3=Άσμα ασμάτων [Μ. Θεοδωράκη-Ι. Καμπανέλλη]
TTITLE4=Δακρυσμένα μάτια [Μ. κ Γ. Θεοδωράκη]
TTITLE5=Το ψωμί είναι στο τραπέζι [Μ. Θεοδωράκη-Ι. Καμπανέλλη]
TTITLE6=Το γελαστό παιδί [Μ. Θεοδωράκη-Μπέχαν-Ρώτα]
TTITLE7=Μαρίνα [Μ. Θεοδωράκη-Ο. Ελύτη]
TTITLE8=Κουρασμένο παλληκάρι [Μ. Χατζιδάκι-Ν. Γκάτσου]
TTITLE9=Το φεγγάρι είναι κόκκινο [Μ. Χατζιδάκι]
TTITLE10=Ο Υμμητός [Μ. Χατζιδάκι]
TTITLE11=Τ' αστέρι του βορηά [Μ. Χατζηδάκι-Ν. Γκάτσου]
EXTD=
EXTT0=
EXTT1=
EXTT2=
EXTT3=
EXTT4=
EXTT5=
EXTT6=
EXTT7=
EXTT8=
EXTT9=
EXTT10=
EXTT11=
PLAYORDER=
